<svg xmlns="http://www.w3.org/2000/svg" width="145.5" height="27.094" viewBox="0 0 145.5 27.094">
  <defs>
    <style>
      .cls-1 {
        fill: #222;
        fill-rule: evenodd;
      }
    </style>
  </defs>
  <path id="Tenkue_App" data-name="Tenkue App" class="cls-1" d="M71.679,5.979V3.306H60.18V5.979h4.334V22.154h2.844V5.979h4.321Zm14.1,10.23a6.58,6.58,0,0,0-1.514-4.6,5.955,5.955,0,0,0-8.325.049,6.586,6.586,0,0,0-1.562,4.565,6.41,6.41,0,0,0,1.611,4.565A5.6,5.6,0,0,0,80.266,22.5a7.2,7.2,0,0,0,1.721-.2,5.143,5.143,0,0,0,1.477-.616,6.032,6.032,0,0,0,1.282-1.074,9.228,9.228,0,0,0,1.135-1.569l-2.319-1.294a6.948,6.948,0,0,1-1.5,1.807,2.81,2.81,0,0,1-1.7.488,2.9,2.9,0,0,1-2.161-.855,3.61,3.61,0,0,1-.952-2.332h8.52Zm-8.35-1.6a3.206,3.206,0,0,1,.391-0.916A2.785,2.785,0,0,1,78.441,13a2.692,2.692,0,0,1,.8-0.439,2.845,2.845,0,0,1,.94-0.153,2.631,2.631,0,0,1,2.771,2.2H77.434Zm12.59,7.544h2.759V16.417a6.215,6.215,0,0,1,.562-3.113,2.12,2.12,0,0,1,1.941-.9,1.97,1.97,0,0,1,1.733.684,4.356,4.356,0,0,1,.488,2.429v6.641h2.759V14.866a5.349,5.349,0,0,0-1-3.625A4.1,4.1,0,0,0,96.03,9.935a4.5,4.5,0,0,0-3.247,1.428v-1.1H90.024v11.89ZM104.982,1.536V22.154h2.747V17.576l0.439-.439,3.931,5.017h3.565l-5.542-6.9,5.163-4.993H111.6l-3.87,3.845V1.536h-2.747Zm13.7,8.728v6.885a6.8,6.8,0,0,0,.341,2.466,4.206,4.206,0,0,0,1.209,1.672,5.771,5.771,0,0,0,7.068,0,4.147,4.147,0,0,0,1.184-1.672,7.659,7.659,0,0,0,.354-2.466V10.264h-2.747v6.824q0,2.954-2.331,2.954t-2.332-2.954V10.264h-2.746ZM144.4,16.209a6.579,6.579,0,0,0-1.514-4.6,5.954,5.954,0,0,0-8.325.049A6.586,6.586,0,0,0,133,16.221a6.411,6.411,0,0,0,1.611,4.565,5.6,5.6,0,0,0,4.273,1.709,7.2,7.2,0,0,0,1.721-.2,5.144,5.144,0,0,0,1.477-.616,6.031,6.031,0,0,0,1.282-1.074,9.2,9.2,0,0,0,1.135-1.569l-2.319-1.294a6.944,6.944,0,0,1-1.5,1.807,2.808,2.808,0,0,1-1.7.488,2.9,2.9,0,0,1-2.161-.855,3.606,3.606,0,0,1-.952-2.332h8.52Zm-8.35-1.6a3.189,3.189,0,0,1,.391-0.916,2.77,2.77,0,0,1,.616-0.69,2.7,2.7,0,0,1,.8-0.439,2.844,2.844,0,0,1,.939-0.153,2.631,2.631,0,0,1,2.771,2.2h-5.517Zm35.129,7.544h3.113l-9-20.032-9.327,20.032h3.064l2.1-4.578H169.2ZM162.314,14.9l2.93-6.409,2.795,6.409h-5.725Zm17.8,5.92a5.21,5.21,0,0,0,7.739-.1,6.424,6.424,0,0,0,1.6-4.456,6.525,6.525,0,0,0-1.611-4.529A5.141,5.141,0,0,0,183.8,9.935a5.082,5.082,0,0,0-3.686,1.624V10.264H177.37V28.624h2.747v-7.8Zm5.578-1.855a2.975,2.975,0,0,1-2.356,1.074A3.083,3.083,0,0,1,180.9,18.98a4.063,4.063,0,0,1-.94-2.759,3.978,3.978,0,0,1,.94-2.759,3.138,3.138,0,0,1,2.454-1.05A3,3,0,0,1,185.72,13.5a4.109,4.109,0,0,1,.927,2.783,3.9,3.9,0,0,1-.952,2.686h0Zm10.662,1.855a5.21,5.21,0,0,0,7.739-.1,6.424,6.424,0,0,0,1.6-4.456,6.525,6.525,0,0,0-1.611-4.529,5.141,5.141,0,0,0-4.041-1.807,5.082,5.082,0,0,0-3.686,1.624V10.264H193.61V28.624h2.747v-7.8Zm5.579-1.855a2.978,2.978,0,0,1-2.356,1.074,3.085,3.085,0,0,1-2.442-1.062,4.063,4.063,0,0,1-.94-2.759,3.978,3.978,0,0,1,.94-2.759,3.14,3.14,0,0,1,2.454-1.05A3,3,0,0,1,201.96,13.5a4.109,4.109,0,0,1,.928,2.783,3.9,3.9,0,0,1-.952,2.686h0Z" transform="translate(-60.188 -1.531)"/>
</svg>
